<svg width="25" height="25" viewBox="0 0 25 25" fill="none" xmlns="http://www.w3.org/2000/svg">
<path d="M15.2038 2.7025C14.1955 2.66209 13.0342 2.6621 11.7 2.66211H11.5691C9.43207 2.66209 7.73919 2.66207 6.4069 2.82813C5.03751 2.9988 3.9193 3.35773 3.01028 4.17038C2.86712 4.29836 2.73041 4.4332 2.60066 4.5744C1.77677 5.47103 1.41287 6.57401 1.23985 7.92472C1.0715 9.23884 1.07152 10.9086 1.07153 13.0165V13.1456C1.07152 15.2535 1.0715 16.9233 1.23985 18.2374C1.41287 19.5881 1.77677 20.6911 2.60066 21.5877C2.73041 21.729 2.86712 21.8638 3.01028 21.9917C3.9193 22.8044 5.03751 23.1633 6.4069 23.3339C7.73919 23.5 9.43205 23.5 11.5691 23.5H11.6999C13.837 23.5 15.5299 23.5 16.8622 23.3339C18.2316 23.1633 19.3498 22.8044 20.2588 21.9917C20.4019 21.8638 20.5387 21.729 20.6685 21.5877C21.4924 20.6911 21.8562 19.5881 22.0292 18.2374C22.1976 16.9233 22.1976 15.2535 22.1976 13.1457V13.0166C22.1976 11.5432 22.1976 10.2837 22.14 9.21027L17.8107 13.4807L17.6957 13.5945C17.2287 14.0572 16.7269 14.5545 16.0869 14.8707C15.9014 14.9622 15.7097 15.0406 15.5129 15.1051C14.8337 15.328 14.1224 15.3263 13.4604 15.3248L13.2975 15.3246H13.2283C12.8129 15.3247 12.3631 15.3248 11.9785 15.2828C11.5361 15.2345 10.9602 15.1127 10.4196 14.7136C10.1821 14.5384 9.97135 14.3305 9.79365 14.0962C9.38909 13.5629 9.26553 12.995 9.21656 12.5585C9.17396 12.1791 9.17411 11.7355 9.17424 11.3258L9.17427 11.2575L9.174 11.0968C9.17244 10.4439 9.17075 9.74225 9.39674 9.07235C9.4622 8.87829 9.54166 8.6891 9.63447 8.50622C9.95492 7.8749 10.4591 7.37997 10.9283 6.91935L11.0437 6.80592L15.2038 2.7025Z" fill="#89EC61"/>
<path d="M17.2537 2.96571C18.0949 2.12886 18.5156 1.71044 19.0037 1.57244C19.3233 1.48205 19.6583 1.47614 19.975 1.55533C20.4582 1.67619 20.8642 2.08005 21.6763 2.88776C22.4885 3.69548 22.8945 4.09932 23.016 4.58008C23.0955 4.89503 23.0897 5.22822 22.9987 5.54617C22.86 6.03151 22.4393 6.44994 21.5979 7.28678L16.7468 12.1119C16.0606 12.7945 15.7175 13.1359 15.2906 13.3309C15.2522 13.3484 15.2136 13.3649 15.1746 13.3806C14.7391 13.5546 14.2623 13.5641 13.3086 13.5834C12.2013 13.6057 11.6476 13.6169 11.2946 13.3005C11.2641 13.2732 11.235 13.2443 11.2075 13.2138C10.8895 12.8628 10.9007 12.3122 10.9232 11.2108C10.9425 10.2621 10.9522 9.78784 11.1271 9.35475C11.1428 9.31594 11.1594 9.27749 11.177 9.23943C11.3731 8.81478 11.7163 8.47348 12.4026 7.79085L17.2537 2.96571Z" fill="#89EC61"/>
</svg>
