<svg width="25" height="25" viewBox="0 0 25 25" fill="none" xmlns="http://www.w3.org/2000/svg">
<path d="M15.2037 2.7025C14.1954 2.66209 13.0341 2.6621 11.6998 2.66211H11.569C9.43195 2.66209 7.73907 2.66207 6.40677 2.82813C5.03739 2.9988 3.91918 3.35773 3.01016 4.17038C2.867 4.29836 2.73029 4.4332 2.60054 4.5744C1.77664 5.47103 1.41275 6.57401 1.23972 7.92472C1.07138 9.23884 1.0714 10.9086 1.07141 13.0165V13.1456C1.0714 15.2535 1.07138 16.9233 1.23972 18.2374C1.41275 19.5881 1.77664 20.6911 2.60054 21.5877C2.73029 21.729 2.867 21.8638 3.01016 21.9917C3.91918 22.8044 5.03739 23.1633 6.40677 23.3339C7.73907 23.5 9.43192 23.5 11.5689 23.5H11.6998C13.8369 23.5 15.5298 23.5 16.8621 23.3339C18.2315 23.1633 19.3497 22.8044 20.2587 21.9917C20.4018 21.8638 20.5385 21.729 20.6683 21.5877C21.4922 20.6911 21.8561 19.5881 22.029 18.2374C22.1975 16.9233 22.1975 15.2535 22.1975 13.1457V13.0166C22.1975 11.5432 22.1975 10.2837 22.1399 9.21027L17.8106 13.4807L17.6955 13.5945C17.2285 14.0572 16.7268 14.5545 16.0867 14.8707C15.9013 14.9622 15.7096 15.0406 15.5128 15.1051C14.8336 15.328 14.1223 15.3263 13.4603 15.3248L13.2974 15.3246H13.2282C12.8128 15.3247 12.363 15.3248 11.9784 15.2828C11.536 15.2345 10.9601 15.1127 10.4195 14.7136C10.182 14.5384 9.97123 14.3305 9.79353 14.0962C9.38896 13.5629 9.26541 12.995 9.21644 12.5585C9.17384 12.1791 9.17399 11.7355 9.17412 11.3258L9.17415 11.2575L9.17388 11.0968C9.17231 10.4439 9.17063 9.74225 9.39662 9.07235C9.46208 8.87829 9.54153 8.6891 9.63435 8.50622C9.9548 7.8749 10.459 7.37997 10.9282 6.91935L11.0435 6.80592L15.2037 2.7025Z" fill="#F7F293"/>
<path d="M17.2536 2.96571C18.0948 2.12886 18.5155 1.71044 19.0035 1.57244C19.3231 1.48205 19.6582 1.47614 19.9748 1.55533C20.4581 1.67619 20.8641 2.08005 21.6762 2.88776C22.4883 3.69548 22.8944 4.09932 23.0158 4.58008C23.0954 4.89503 23.0895 5.22822 22.9986 5.54617C22.8599 6.03151 22.4392 6.44994 21.5978 7.28678L16.7467 12.1119C16.0604 12.7945 15.7174 13.1359 15.2904 13.3309C15.2521 13.3484 15.2134 13.3649 15.1745 13.3806C14.739 13.5546 14.2622 13.5641 13.3085 13.5834C12.2012 13.6057 11.6475 13.6169 11.2945 13.3005C11.264 13.2732 11.2349 13.2443 11.2074 13.2138C10.8894 12.8628 10.9006 12.3122 10.9231 11.2108C10.9424 10.2621 10.9521 9.78784 11.127 9.35475C11.1427 9.31594 11.1593 9.27749 11.1769 9.23943C11.373 8.81478 11.7161 8.47348 12.4025 7.79085L17.2536 2.96571Z" fill="#F7F293"/>
</svg>
