<svg width="25" height="25" viewBox="0 0 25 25" fill="none" xmlns="http://www.w3.org/2000/svg">
<path fill-rule="evenodd" clip-rule="evenodd" d="M13.2765 0.500001H10.7609C10.0627 0.499981 9.46953 0.499965 8.98776 0.548224C8.47969 0.599119 7.99351 0.71118 7.55417 1.00196C7.25157 1.20224 6.99001 1.45496 6.78274 1.74732C6.48177 2.17182 6.36579 2.64156 6.31311 3.13245C6.28175 3.42483 6.27009 3.75963 6.26576 4.1354C6.18327 4.14464 6.10239 4.15456 6.02306 4.16524C4.84521 4.32378 3.86167 4.6637 3.11805 5.45864C2.37442 6.25357 2.1235 7.23327 2.07895 8.38148C2.03592 9.49027 2.18317 10.8948 2.3665 12.6434L2.87077 17.454C3.02276 18.904 3.14565 20.0766 3.3674 20.9956C3.59811 21.9518 3.96001 22.7473 4.66946 23.3668C5.37891 23.9863 6.2345 24.2541 7.2423 24.3795C8.211 24.5 9.43073 24.5 10.9392 24.5H13.4398C14.9894 24.5 16.2413 24.5 17.2328 24.3751C18.2638 24.245 19.137 23.9674 19.8527 23.3241C20.5683 22.6809 20.9179 21.8594 21.1265 20.8753C21.327 19.9288 21.4174 18.7224 21.5292 17.2291L21.8894 12.4181C22.0173 10.711 22.12 9.33842 22.0472 8.25606C21.9717 7.1343 21.7014 6.18091 20.9613 5.41216C20.221 4.64343 19.2564 4.31413 18.1039 4.16044C17.996 4.14607 17.8853 4.13308 17.7715 4.12136C17.7672 3.75129 17.7554 3.4212 17.7244 3.13245C17.6717 2.64156 17.5558 2.17182 17.2548 1.74732C17.0475 1.45496 16.7859 1.20224 16.4833 1.00196C16.044 0.71118 15.5578 0.599119 15.0498 0.548224C14.568 0.499965 13.9749 0.499981 13.2765 0.500001ZM15.9524 4.02513C15.9477 3.74005 15.9377 3.5098 15.9165 3.31354C15.8792 2.96458 15.8148 2.82372 15.7553 2.73975C15.6749 2.62639 15.5735 2.5284 15.4562 2.45074C15.3693 2.39323 15.2235 2.33114 14.8623 2.29496C14.4854 2.25721 13.9874 2.2561 13.2304 2.2561H10.8071C10.0501 2.2561 9.55208 2.25721 9.1752 2.29496C8.81401 2.33114 8.66823 2.39323 8.58133 2.45074C8.464 2.5284 8.36257 2.62639 8.2822 2.73975C8.22267 2.82372 8.15841 2.96458 8.12096 3.31354C8.09982 3.5106 8.08979 3.74192 8.08502 4.02862C8.79176 4.01218 9.57574 4.01218 10.4406 4.0122H13.796C14.5822 4.01218 15.2999 4.01218 15.9524 4.02513ZM9.56666 10.0854C10.0684 10.0854 10.4751 10.4785 10.4751 10.9634V16.8171C10.4751 17.302 10.0684 17.6952 9.56666 17.6952C9.06495 17.6952 8.65823 17.302 8.65823 16.8171V10.9634C8.65823 10.4785 9.06495 10.0854 9.56666 10.0854ZM15.3219 10.9634C15.3219 10.4785 14.9152 10.0854 14.4134 10.0854C13.9118 10.0854 13.505 10.4785 13.505 10.9634V16.8171C13.505 17.302 13.9118 17.6952 14.4134 17.6952C14.9152 17.6952 15.3219 17.302 15.3219 16.8171V10.9634Z" fill="#FB5353"/>
</svg>
