<svg width="25" height="25" viewBox="0 0 25 25" fill="none" xmlns="http://www.w3.org/2000/svg">
<path fill-rule="evenodd" clip-rule="evenodd" d="M12.0714 1.5C5.99628 1.5 1.07141 6.42487 1.07141 12.5C1.07141 18.5752 5.99628 23.5 12.0714 23.5C18.1466 23.5 23.0714 18.5752 23.0714 12.5C23.0714 6.42487 18.1466 1.5 12.0714 1.5ZM12.0714 7.15278C11.3964 7.15278 10.8492 7.69998 10.8492 8.375C10.8492 9.05002 11.3964 9.59722 12.0714 9.59722C12.7464 9.59722 13.2936 9.05002 13.2936 8.375C13.2936 7.69998 12.7464 7.15278 12.0714 7.15278ZM11.1547 16.9306C11.1547 17.4368 11.5652 17.8472 12.0714 17.8472C12.5777 17.8472 12.9881 17.4368 12.9881 16.9306V12.0417C12.9881 11.5354 12.5777 11.125 12.0714 11.125C11.5652 11.125 11.1547 11.5354 11.1547 12.0417V16.9306Z" fill="#426180"/>
</svg>
