<svg width="20" height="17" viewBox="0 0 20 17" fill="none" xmlns="http://www.w3.org/2000/svg">
<path fill-rule="evenodd" clip-rule="evenodd" d="M10.4754 0.387939C10.8683 -0.0891577 11.545 -0.132121 11.987 0.291951L19.6406 7.63613C19.8693 7.85546 20 8.16985 20 8.49999C20 8.8301 19.8693 9.14445 19.6406 9.3639L11.987 16.708C11.545 17.1321 10.8683 17.0892 10.4754 16.6121C10.0826 16.135 10.1223 15.4045 10.5643 14.9804L16.1133 9.65584H1.07069C0.479357 9.65584 0 9.13826 0 8.49999C0 7.86166 0.479357 7.34419 1.07069 7.34419H16.1133L10.5643 2.01968C10.1223 1.59559 10.0826 0.865036 10.4754 0.387939Z" fill="black"/>
</svg>
