<svg width="20" height="17" viewBox="0 0 20 17" fill="none" xmlns="http://www.w3.org/2000/svg">
<path fill-rule="evenodd" clip-rule="evenodd" d="M9.52457 16.6121C9.13171 17.0892 8.455 17.1321 8.013 16.708L0.359428 9.36387C0.130714 9.14454 -4.76837e-07 8.83015 -4.76837e-07 8.50001C-4.76837e-07 8.1699 0.130714 7.85555 0.359428 7.6361L8.013 0.291952C8.455 -0.13212 9.13171 -0.0891558 9.52457 0.387926C9.91743 0.865007 9.87771 1.59554 9.43571 2.01961L3.88671 7.34416L18.9293 7.34416C19.5206 7.34416 20 7.86174 20 8.50001C20 9.13834 19.5206 9.65581 18.9293 9.65581L3.88671 9.65581L9.43571 14.9803C9.87771 15.4044 9.91743 16.135 9.52457 16.6121Z" fill="black"/>
</svg>
