<svg width="22" height="22" viewBox="0 0 22 22" fill="none" xmlns="http://www.w3.org/2000/svg">
<path d="M21.4054 18.5351C22.198 19.3277 22.198 20.6129 21.4054 21.4055C20.6128 22.1982 19.3276 22.1982 18.5349 21.4055L11 13.8705L3.46501 21.4055C2.67234 22.1982 1.3872 22.1982 0.594549 21.4055C-0.198122 20.6129 -0.198122 19.3277 0.594549 18.5351L8.12949 11.0001L0.594488 3.46498C-0.198163 2.67232 -0.198163 1.38715 0.594488 0.594492C1.38714 -0.198164 2.6723 -0.198164 3.46495 0.594492L11 8.12955L18.5349 0.594492C19.3276 -0.198164 20.6128 -0.198164 21.4054 0.594492C22.1982 1.38715 22.1982 2.67232 21.4054 3.46498L13.8704 11.0001L21.4054 18.5351Z" fill="#3393AD"/>
</svg>
