<svg width="45" height="40" viewBox="0 0 45 40" fill="none" xmlns="http://www.w3.org/2000/svg">
<path d="M0 0H30C38.2843 0 45 6.71573 45 15V25C45 33.2843 38.2843 40 30 40H0V0Z" fill="#E6F6F9"/>
<path d="M29.3333 11.5385H26.8333V10.7692C26.8333 10.5652 26.7455 10.3696 26.5893 10.2253C26.433 10.081 26.221 10 26 10C25.779 10 25.567 10.081 25.4107 10.2253C25.2545 10.3696 25.1667 10.5652 25.1667 10.7692V11.5385H16.8333V10.7692C16.8333 10.5652 16.7455 10.3696 16.5893 10.2253C16.433 10.081 16.221 10 16 10C15.779 10 15.567 10.081 15.4107 10.2253C15.2545 10.3696 15.1667 10.5652 15.1667 10.7692V11.5385H12.6667C12.2246 11.5385 11.8007 11.7005 11.4882 11.9891C11.1756 12.2776 11 12.6689 11 13.0769V28.4615C11 28.8696 11.1756 29.2609 11.4882 29.5494C11.8007 29.8379 12.2246 30 12.6667 30H29.3333C29.7754 30 30.1993 29.8379 30.5118 29.5494C30.8244 29.2609 31 28.8696 31 28.4615V13.0769C31 12.6689 30.8244 12.2776 30.5118 11.9891C30.1993 11.7005 29.7754 11.5385 29.3333 11.5385ZM15.1667 13.0769V13.8462C15.1667 14.0502 15.2545 14.2458 15.4107 14.3901C15.567 14.5343 15.779 14.6154 16 14.6154C16.221 14.6154 16.433 14.5343 16.5893 14.3901C16.7455 14.2458 16.8333 14.0502 16.8333 13.8462V13.0769H25.1667V13.8462C25.1667 14.0502 25.2545 14.2458 25.4107 14.3901C25.567 14.5343 25.779 14.6154 26 14.6154C26.221 14.6154 26.433 14.5343 26.5893 14.3901C26.7455 14.2458 26.8333 14.0502 26.8333 13.8462V13.0769H29.3333V16.1538H12.6667V13.0769H15.1667ZM29.3333 28.4615H12.6667V17.6923H29.3333V28.4615ZM25.3396 20.225C25.4171 20.2964 25.4785 20.3813 25.5205 20.4747C25.5624 20.568 25.584 20.6681 25.584 20.7692C25.584 20.8703 25.5624 20.9704 25.5205 21.0638C25.4785 21.1572 25.4171 21.242 25.3396 21.3135L20.3396 25.9288C20.2622 26.0004 20.1703 26.0571 20.0691 26.0958C19.968 26.1345 19.8595 26.1545 19.75 26.1545C19.6405 26.1545 19.532 26.1345 19.4309 26.0958C19.3297 26.0571 19.2378 26.0004 19.1604 25.9288L16.6604 23.6212C16.504 23.4768 16.4162 23.281 16.4162 23.0769C16.4162 22.8728 16.504 22.677 16.6604 22.5327C16.8168 22.3884 17.0289 22.3073 17.25 22.3073C17.4711 22.3073 17.6832 22.3884 17.8396 22.5327L19.75 24.2971L24.1604 20.225C24.2378 20.1535 24.3297 20.0967 24.4309 20.058C24.532 20.0193 24.6405 19.9994 24.75 19.9994C24.8595 19.9994 24.968 20.0193 25.0691 20.058C25.1703 20.0967 25.2622 20.1535 25.3396 20.225Z" fill="black"/>
</svg>
