<svg width="120" height="120" viewBox="0 0 120 120" fill="none" xmlns="http://www.w3.org/2000/svg">
<path fill-rule="evenodd" clip-rule="evenodd" d="M114 60C114 89.8236 89.8236 114 60 114C30.1766 114 6 89.8236 6 60C6 30.1766 30.1766 6 60 6C89.8236 6 114 30.1766 114 60ZM85.1532 93.6378C78.1416 98.8896 69.4344 102 60 102C36.8041 102 18 83.196 18 60C18 50.5658 21.1105 41.8582 26.362 34.8467L85.1532 93.6378ZM93.6384 85.1526L34.8473 26.3615C41.8587 21.1103 50.5661 18 60 18C83.196 18 102 36.8041 102 60C102 69.4338 98.8896 78.141 93.6384 85.1526Z" fill="#E4EBF1"/>
</svg>
