<svg width="120" height="120" viewBox="0 0 120 120" fill="none" xmlns="http://www.w3.org/2000/svg">
<path fill-rule="evenodd" clip-rule="evenodd" d="M58.9955 12C48.0394 12 38.2736 14.9095 31.7212 22.6746C27.9859 27.1013 25.5464 32.8114 24.4058 39.8246C18.67 40.6782 13.714 42.9074 9.75174 46.421C3.21339 52.219 0 60.9672 0 70.953C0 84.1446 3.85693 93.663 10.7576 99.795C17.549 105.83 26.6407 108 36 108C36.4463 108 36.8906 107.992 37.333 107.975V108H91.9284H91.9998H93.333V107.981C100.025 107.782 106.573 106.051 111.584 101.6C117.038 96.7566 120 89.3004 120 79.2C120 71.6244 117.78 64.2834 112.832 59.1818C109.082 55.315 104.067 53.0461 98.0484 52.7555C99.282 41.7313 96.5592 31.7344 90.0654 24.3301C83.1192 16.4085 72.3396 12 58.9955 12ZM67.8432 54.2633C69.6294 52.4771 72.5256 52.4771 74.3118 54.2633C76.0974 56.0495 76.0974 58.9456 74.3118 60.732L66.4686 68.5746L74.3118 76.4172C76.0974 78.2034 76.0974 81.0996 74.3118 82.8858C72.5256 84.672 69.6294 84.672 67.8432 82.8858L60.0006 75.0426L52.1576 82.8858C50.3714 84.672 47.4755 84.672 45.6893 82.8858C43.9031 81.0996 43.9031 78.2034 45.6893 76.4172L53.532 68.5746L45.6893 60.732C43.9031 58.9456 43.9031 56.0495 45.6893 54.2633C47.4755 52.4771 50.3714 52.4771 52.1576 54.2633L60.0006 62.106L67.8432 54.2633Z" fill="#E4EBF1"/>
</svg>
