<svg width="24" height="24" viewBox="0 0 24 24" fill="none" xmlns="http://www.w3.org/2000/svg">
<path d="M16 14C15.1667 14 14.4583 13.7083 13.875 13.125C13.2917 12.5417 13 11.8333 13 11C13 10.1667 13.2917 9.45833 13.875 8.875C14.4583 8.29167 15.1667 8 16 8C16.8333 8 17.5417 8.29167 18.125 8.875C18.7083 9.45833 19 10.1667 19 11C19 11.8333 18.7083 12.5417 18.125 13.125C17.5417 13.7083 16.8333 14 16 14ZM11 20C10.7167 20 10.4793 19.904 10.288 19.712C10.0967 19.52 10.0007 19.2827 10 19V18.1C10 17.75 10.0833 17.4167 10.25 17.1C10.4167 16.7833 10.65 16.5333 10.95 16.35C11.7 15.9 12.496 15.5627 13.338 15.338C14.18 15.1133 15.0673 15.0007 16 15C16.9327 14.9993 17.8203 15.112 18.663 15.338C19.5057 15.564 20.3013 15.9013 21.05 16.35C21.35 16.5333 21.5833 16.7833 21.75 17.1C21.9167 17.4167 22 17.75 22 18.1V19C22 19.2833 21.904 19.521 21.712 19.713C21.52 19.905 21.2827 20.0007 21 20H11ZM10 14H4C3.71667 14 3.47933 13.904 3.288 13.712C3.09667 13.52 3.00067 13.2827 3 13C2.99933 12.7173 3.09533 12.48 3.288 12.288C3.48067 12.096 3.718 12 4 12H10C10.2833 12 10.521 12.096 10.713 12.288C10.905 12.48 11.0007 12.7173 11 13C10.9993 13.2827 10.9033 13.5203 10.712 13.713C10.5207 13.9057 10.2833 14.0013 10 14ZM14 6H4C3.71667 6 3.47933 5.904 3.288 5.712C3.09667 5.52 3.00067 5.28267 3 5C2.99933 4.71733 3.09533 4.48 3.288 4.288C3.48067 4.096 3.718 4 4 4H14C14.2833 4 14.521 4.096 14.713 4.288C14.905 4.48 15.0007 4.71733 15 5C14.9993 5.28267 14.9033 5.52033 14.712 5.713C14.5207 5.90567 14.2833 6.00133 14 6ZM11.1 10H4C3.71667 10 3.47933 9.904 3.288 9.712C3.09667 9.52 3.00067 9.28267 3 9C2.99933 8.71733 3.09533 8.48 3.288 8.288C3.48067 8.096 3.718 8 4 8H12C11.7667 8.28333 11.5793 8.59167 11.438 8.925C11.2967 9.25833 11.184 9.61667 11.1 10Z" fill="#305879"/>
</svg>
