<svg width="44" height="44" viewBox="0 0 44 44" fill="none" xmlns="http://www.w3.org/2000/svg">
<path fill-rule="evenodd" clip-rule="evenodd" d="M15 19C15 17.1435 15.7375 15.363 17.0503 14.0503C18.363 12.7375 20.1435 12 22 12C23.8565 12 25.637 12.7375 26.9497 14.0503C28.2625 15.363 29 17.1435 29 19V20.035C30.696 20.278 32 21.737 32 23.5V23.75C31.9999 24.1836 31.913 24.6128 31.7444 25.0123C31.5759 25.4119 31.3291 25.7736 31.0186 26.0763C30.7081 26.379 30.3401 26.6164 29.9365 26.7747C29.5328 26.933 29.1015 27.0089 28.668 26.998C27.928 29.118 26.046 30.547 24.015 30.909C23.545 31.081 22.989 31 22.5 31C22.1022 31 21.7206 30.842 21.4393 30.5607C21.158 30.2794 21 29.8978 21 29.5C21 29.1022 21.158 28.7206 21.4393 28.4393C21.7206 28.158 22.1022 28 22.5 28H23.5C23.7348 28 23.9664 28.055 24.176 28.1608C24.3856 28.2666 24.5675 28.4201 24.707 28.609C26.003 27.992 27 26.689 27 25V19C27 17.6739 26.4732 16.4021 25.5355 15.4645C24.5979 14.5268 23.3261 14 22 14C20.6739 14 19.4021 14.5268 18.4645 15.4645C17.5268 16.4021 17 17.6739 17 19V25.25C17 25.7141 16.8156 26.1592 16.4874 26.4874C16.1592 26.8156 15.7141 27 15.25 27C14.388 27 13.5614 26.6576 12.9519 26.0481C12.3424 25.4386 12 24.612 12 23.75V23.5C11.9998 22.6582 12.303 21.8446 12.854 21.2082C13.4049 20.5718 14.1669 20.1553 15 20.035V19ZM15 22.085C14.7074 22.1884 14.4541 22.3801 14.275 22.6335C14.0959 22.8869 13.9998 23.1897 14 23.5V23.75C14 24.355 14.43 24.86 15 24.975V22.085ZM29 22.085V24.975C29.57 24.859 30 24.355 30 23.75V23.5C30.0002 23.1897 29.9041 22.8869 29.725 22.6335C29.5459 22.3801 29.2926 22.1884 29 22.085Z" fill="black"/>
</svg>
