<svg width="44" height="42" viewBox="0 0 44 42" fill="none" xmlns="http://www.w3.org/2000/svg">
<path fill-rule="evenodd" clip-rule="evenodd" d="M21.0573 10H20.9427C19.7821 9.99999 18.7576 9.99999 17.8519 10.0249C17.7836 10.0086 17.7122 10 17.6389 10C17.5439 10 17.4524 10.0144 17.3662 10.0412C16.8248 10.0631 16.329 10.0966 15.8744 10.1478C14.5325 10.2991 13.4372 10.6149 12.5104 11.326C12.0656 11.6674 11.6674 12.0656 11.326 12.5104C10.6149 13.4372 10.2991 14.5325 10.1478 15.8744C9.99998 17.186 9.99999 18.8411 10 20.9427V21.0573C9.99999 23.1588 9.99998 24.8141 10.1478 26.1256C10.2991 27.4675 10.6149 28.5627 11.326 29.4896C11.6674 29.9344 12.0656 30.3326 12.5104 30.674C13.4372 31.3851 14.5325 31.7009 15.8744 31.8521C16.329 31.9034 16.8248 31.9369 17.3662 31.9588C17.4524 31.9856 17.5439 32 17.6389 32C17.7122 32 17.7836 31.9914 17.8519 31.9751C18.7576 32 19.7821 32 20.9427 32H21.0573C23.1588 32 24.8141 32 26.1256 31.8521C27.4675 31.7009 28.5627 31.3851 29.4896 30.674C29.9344 30.3326 30.3326 29.9344 30.674 29.4896C31.3851 28.5627 31.7009 27.4675 31.8521 26.1256C32 24.8141 32 23.1588 32 21.0573V20.9427C32 18.8411 32 17.186 31.8521 15.8744C31.7009 14.5325 31.3851 13.4372 30.674 12.5104C30.3326 12.0656 29.9344 11.6674 29.4896 11.326C28.5627 10.6149 27.4675 10.2991 26.1256 10.1478C24.8141 9.99998 23.1588 9.99999 21.0573 10ZM18.5556 30.1559C19.2727 30.1664 20.0809 30.1667 21 30.1667C23.1714 30.1667 24.7233 30.1653 25.9202 30.0304C27.0986 29.8975 27.819 29.645 28.3735 29.2196C28.6913 28.9757 28.9757 28.6913 29.2196 28.3735C29.645 27.819 29.8975 27.0986 30.0304 25.9202C30.1653 24.7233 30.1667 23.1714 30.1667 21C30.1667 20.0809 30.1664 19.2727 30.1559 18.5556H18.5556V30.1559ZM30.0882 16.7222C30.0724 16.497 30.0532 16.2832 30.0304 16.0798C29.8975 14.9013 29.645 14.1809 29.2196 13.6265C28.9757 13.3087 28.6913 13.0243 28.3735 12.7805C27.819 12.355 27.0986 12.1025 25.9202 11.9696C24.7233 11.8347 23.1714 11.8333 21 11.8333C20.0809 11.8333 19.2727 11.8336 18.5556 11.8441V16.7222H30.0882ZM16.7222 11.9118C16.497 11.9276 16.2832 11.9467 16.0798 11.9696C14.9013 12.1025 14.1809 12.355 13.6265 12.7805C13.3087 13.0243 13.0243 13.3087 12.7805 13.6265C12.355 14.1809 12.1025 14.9013 11.9696 16.0798C11.8347 17.2767 11.8333 18.8286 11.8333 21C11.8333 23.1714 11.8347 24.7233 11.9696 25.9202C12.1025 27.0986 12.355 27.819 12.7805 28.3735C13.0243 28.6913 13.3087 28.9757 13.6265 29.2196C14.1809 29.645 14.9013 29.8975 16.0798 30.0304C16.2832 30.0532 16.497 30.0724 16.7222 30.0882V11.9118Z" fill="black"/>
</svg>
