<svg width="44" height="44" viewBox="0 0 44 44" fill="none" xmlns="http://www.w3.org/2000/svg">
<path d="M26 24C25.1667 24 24.4583 23.7083 23.875 23.125C23.2917 22.5417 23 21.8333 23 21C23 20.1667 23.2917 19.4583 23.875 18.875C24.4583 18.2917 25.1667 18 26 18C26.8333 18 27.5417 18.2917 28.125 18.875C28.7083 19.4583 29 20.1667 29 21C29 21.8333 28.7083 22.5417 28.125 23.125C27.5417 23.7083 26.8333 24 26 24ZM21 30C20.7167 30 20.4793 29.904 20.288 29.712C20.0967 29.52 20.0007 29.2827 20 29V28.1C20 27.75 20.0833 27.4167 20.25 27.1C20.4167 26.7833 20.65 26.5333 20.95 26.35C21.7 25.9 22.496 25.5627 23.338 25.338C24.18 25.1133 25.0673 25.0007 26 25C26.9327 24.9993 27.8203 25.112 28.663 25.338C29.5057 25.564 30.3013 25.9013 31.05 26.35C31.35 26.5333 31.5833 26.7833 31.75 27.1C31.9167 27.4167 32 27.75 32 28.1V29C32 29.2833 31.904 29.521 31.712 29.713C31.52 29.905 31.2827 30.0007 31 30H21ZM20 24H14C13.7167 24 13.4793 23.904 13.288 23.712C13.0967 23.52 13.0007 23.2827 13 23C12.9993 22.7173 13.0953 22.48 13.288 22.288C13.4807 22.096 13.718 22 14 22H20C20.2833 22 20.521 22.096 20.713 22.288C20.905 22.48 21.0007 22.7173 21 23C20.9993 23.2827 20.9033 23.5203 20.712 23.713C20.5207 23.9057 20.2833 24.0013 20 24ZM24 16H14C13.7167 16 13.4793 15.904 13.288 15.712C13.0967 15.52 13.0007 15.2827 13 15C12.9993 14.7173 13.0953 14.48 13.288 14.288C13.4807 14.096 13.718 14 14 14H24C24.2833 14 24.521 14.096 24.713 14.288C24.905 14.48 25.0007 14.7173 25 15C24.9993 15.2827 24.9033 15.5203 24.712 15.713C24.5207 15.9057 24.2833 16.0013 24 16ZM21.1 20H14C13.7167 20 13.4793 19.904 13.288 19.712C13.0967 19.52 13.0007 19.2827 13 19C12.9993 18.7173 13.0953 18.48 13.288 18.288C13.4807 18.096 13.718 18 14 18H22C21.7667 18.2833 21.5793 18.5917 21.438 18.925C21.2967 19.2583 21.184 19.6167 21.1 20Z" fill="black"/>
</svg>
