<svg width="22" height="22" viewBox="0 0 22 22" fill="none" xmlns="http://www.w3.org/2000/svg">
<path fill-rule="evenodd" clip-rule="evenodd" d="M11.0573 1.91411e-07H10.9427C9.78208 -5.9197e-06 8.75759 -1.20225e-05 7.85195 0.0248969C7.78358 0.00861687 7.71225 1.91411e-07 7.63889 1.91411e-07C7.54395 1.91411e-07 7.45237 0.0144347 7.36624 0.0412258C6.82484 0.0631036 6.32898 0.0965924 5.87442 0.14784C4.53246 0.299127 3.43722 0.614851 2.51044 1.32599C2.06557 1.66736 1.66736 2.06557 1.32599 2.51044C0.614851 3.43722 0.299127 4.53246 0.14784 5.87442C-2.05893e-05 7.18599 -1.08105e-05 8.84114 1.89477e-07 10.9427V11.0573C-1.08105e-05 13.1588 -2.05893e-05 14.8141 0.14784 16.1256C0.299127 17.4675 0.614851 18.5627 1.32599 19.4896C1.66736 19.9344 2.06557 20.3326 2.51044 20.674C3.43722 21.3851 4.53246 21.7009 5.87442 21.8521C6.32898 21.9034 6.82484 21.9369 7.36624 21.9588C7.45237 21.9856 7.54395 22 7.63889 22C7.71225 22 7.78358 21.9914 7.85195 21.9751C8.75759 22 9.78206 22 10.9427 22H11.0573C13.1588 22 14.8141 22 16.1256 21.8521C17.4675 21.7009 18.5627 21.3851 19.4896 20.674C19.9344 20.3326 20.3326 19.9344 20.674 19.4896C21.3851 18.5627 21.7009 17.4675 21.8521 16.1256C22 14.8141 22 13.1588 22 11.0573V10.9427C22 8.84114 22 7.18599 21.8521 5.87442C21.7009 4.53246 21.3851 3.43722 20.674 2.51044C20.3326 2.06557 19.9344 1.66736 19.4896 1.32599C18.5627 0.614851 17.4675 0.299127 16.1256 0.14784C14.8141 -2.05893e-05 13.1588 -1.08086e-05 11.0573 1.91411e-07ZM8.55556 20.1559C9.27274 20.1664 10.0809 20.1667 11 20.1667C13.1714 20.1667 14.7233 20.1653 15.9202 20.0304C17.0986 19.8975 17.819 19.645 18.3735 19.2196C18.6913 18.9757 18.9757 18.6913 19.2196 18.3735C19.645 17.819 19.8975 17.0986 20.0304 15.9202C20.1653 14.7233 20.1667 13.1714 20.1667 11C20.1667 10.0809 20.1664 9.27274 20.1559 8.55556H8.55556V20.1559ZM20.0882 6.72222C20.0724 6.49695 20.0532 6.28325 20.0304 6.0798C19.8975 4.90134 19.645 4.18093 19.2196 3.62652C18.9757 3.30874 18.6913 3.0243 18.3735 2.78047C17.819 2.35504 17.0986 2.10249 15.9202 1.96964C14.7233 1.8347 13.1714 1.83333 11 1.83333C10.0809 1.83333 9.27274 1.83358 8.55556 1.84409V6.72222H20.0882ZM6.72222 1.91175C6.49695 1.92762 6.28325 1.94669 6.0798 1.96964C4.90134 2.10249 4.18093 2.35504 3.62652 2.78047C3.30874 3.0243 3.0243 3.30874 2.78047 3.62652C2.35504 4.18093 2.10249 4.90134 1.96964 6.0798C1.8347 7.27672 1.83333 8.82858 1.83333 11C1.83333 13.1714 1.8347 14.7233 1.96964 15.9202C2.10249 17.0986 2.35504 17.819 2.78047 18.3735C3.0243 18.6913 3.30874 18.9757 3.62652 19.2196C4.18093 19.645 4.90134 19.8975 6.0798 20.0304C6.28325 20.0532 6.49695 20.0724 6.72222 20.0882V1.91175Z" fill="black"/>
</svg>
