<svg width="24" height="24" viewBox="0 0 24 24" fill="none" xmlns="http://www.w3.org/2000/svg">
<path d="M23.0769 21.913H22.1538V1.04348C22.1538 0.766731 22.0566 0.501318 21.8835 0.305628C21.7104 0.109938 21.4756 0 21.2308 0H14.7692C14.5244 0 14.2896 0.109938 14.1165 0.305628C13.9434 0.501318 13.8462 0.766731 13.8462 1.04348V6.26087H8.30769C8.06288 6.26087 7.82809 6.37081 7.65498 6.5665C7.48187 6.76219 7.38462 7.0276 7.38462 7.30435V12.5217H2.76923C2.52442 12.5217 2.28963 12.6317 2.11652 12.8274C1.94341 13.0231 1.84615 13.2885 1.84615 13.5652V21.913H0.923077C0.678262 21.913 0.443473 22.023 0.270363 22.2187C0.0972524 22.4144 0 22.6798 0 22.9565C0 23.2333 0.0972524 23.4987 0.270363 23.6944C0.443473 23.8901 0.678262 24 0.923077 24H23.0769C23.3217 24 23.5565 23.8901 23.7296 23.6944C23.9027 23.4987 24 23.2333 24 22.9565C24 22.6798 23.9027 22.4144 23.7296 22.2187C23.5565 22.023 23.3217 21.913 23.0769 21.913ZM15.6923 2.08696H20.3077V21.913H15.6923V2.08696ZM9.23077 8.34783H13.8462V21.913H9.23077V8.34783ZM3.69231 14.6087H7.38462V21.913H3.69231V14.6087Z" fill="#305879"/>
</svg>
