<svg width="44" height="44" viewBox="0 0 44 44" fill="none" xmlns="http://www.w3.org/2000/svg">
<path d="M33.0769 31.913H32.1538V11.0435C32.1538 10.7667 32.0566 10.5013 31.8835 10.3056C31.7104 10.1099 31.4756 10 31.2308 10H24.7692C24.5244 10 24.2896 10.1099 24.1165 10.3056C23.9434 10.5013 23.8462 10.7667 23.8462 11.0435V16.2609H18.3077C18.0629 16.2609 17.8281 16.3708 17.655 16.5665C17.4819 16.7622 17.3846 17.0276 17.3846 17.3043V22.5217H12.7692C12.5244 22.5217 12.2896 22.6317 12.1165 22.8274C11.9434 23.0231 11.8462 23.2885 11.8462 23.5652V31.913H10.9231C10.6783 31.913 10.4435 32.023 10.2704 32.2187C10.0973 32.4144 10 32.6798 10 32.9565C10 33.2333 10.0973 33.4987 10.2704 33.6944C10.4435 33.8901 10.6783 34 10.9231 34H33.0769C33.3217 34 33.5565 33.8901 33.7296 33.6944C33.9028 33.4987 34 33.2333 34 32.9565C34 32.6798 33.9028 32.4144 33.7296 32.2187C33.5565 32.023 33.3217 31.913 33.0769 31.913ZM25.6923 12.087H30.3077V31.913H25.6923V12.087ZM19.2308 18.3478H23.8462V31.913H19.2308V18.3478ZM13.6923 24.6087H17.3846V31.913H13.6923V24.6087Z" fill="black"/>
</svg>
