<svg width="24" height="24" viewBox="0 0 24 24" fill="none" xmlns="http://www.w3.org/2000/svg">
<path d="M19.2806 18.9693C19.3503 19.039 19.4056 19.1217 19.4433 19.2128C19.481 19.3038 19.5004 19.4014 19.5004 19.4999C19.5004 19.5985 19.481 19.6961 19.4433 19.7871C19.4056 19.8781 19.3503 19.9609 19.2806 20.0306C19.2109 20.1002 19.1282 20.1555 19.0372 20.1932C18.9461 20.2309 18.8485 20.2503 18.75 20.2503C18.6514 20.2503 18.5539 20.2309 18.4628 20.1932C18.3718 20.1555 18.2891 20.1002 18.2194 20.0306L10.7194 12.5306C10.6496 12.4609 10.5943 12.3782 10.5566 12.2871C10.5188 12.1961 10.4994 12.0985 10.4994 11.9999C10.4994 11.9014 10.5188 11.8038 10.5566 11.7127C10.5943 11.6217 10.6496 11.539 10.7194 11.4693L18.2194 3.9693C18.3601 3.82857 18.551 3.74951 18.75 3.74951C18.949 3.74951 19.1399 3.82857 19.2806 3.9693C19.4214 4.11003 19.5004 4.30091 19.5004 4.49993C19.5004 4.69895 19.4214 4.88982 19.2806 5.03055L12.3103 11.9999L19.2806 18.9693ZM4.81031 11.9999L11.7806 5.03055C11.9214 4.88982 12.0004 4.69895 12.0004 4.49993C12.0004 4.30091 11.9214 4.11003 11.7806 3.9693C11.6399 3.82857 11.449 3.74951 11.25 3.74951C11.051 3.74951 10.8601 3.82857 10.7194 3.9693L3.21937 11.4693C3.14964 11.539 3.09432 11.6217 3.05658 11.7127C3.01883 11.8038 2.9994 11.9014 2.9994 11.9999C2.9994 12.0985 3.01883 12.1961 3.05658 12.2871C3.09432 12.3782 3.14964 12.4609 3.21937 12.5306L10.7194 20.0306C10.7891 20.1002 10.8718 20.1555 10.9628 20.1932C11.0539 20.2309 11.1514 20.2503 11.25 20.2503C11.3485 20.2503 11.4461 20.2309 11.5372 20.1932C11.6282 20.1555 11.7109 20.1002 11.7806 20.0306C11.8503 19.9609 11.9056 19.8781 11.9433 19.7871C11.981 19.6961 12.0004 19.5985 12.0004 19.4999C12.0004 19.4014 11.981 19.3038 11.9433 19.2128C11.9056 19.1217 11.8503 19.039 11.7806 18.9693L4.81031 11.9999Z" fill="#298BA3"/>
</svg>
