<svg width="24" height="24" viewBox="0 0 24 24" fill="none" xmlns="http://www.w3.org/2000/svg">
<path d="M4.71927 18.9694C4.64959 19.039 4.59432 19.1218 4.5566 19.2128C4.51889 19.3039 4.49948 19.4014 4.49948 19.5C4.49948 19.5985 4.51889 19.6961 4.5566 19.7872C4.59432 19.8782 4.64959 19.9609 4.71927 20.0306C4.78896 20.1003 4.87168 20.1556 4.96273 20.1933C5.05377 20.231 5.15135 20.2504 5.2499 20.2504C5.34844 20.2504 5.44603 20.231 5.53707 20.1933C5.62812 20.1556 5.71084 20.1003 5.78052 20.0306L13.2805 12.5306C13.3503 12.461 13.4056 12.3782 13.4433 12.2872C13.4811 12.1961 13.5005 12.0986 13.5005 12C13.5005 11.9014 13.4811 11.8038 13.4433 11.7128C13.4056 11.6217 13.3503 11.539 13.2805 11.4694L5.78052 3.96936C5.63979 3.82863 5.44892 3.74957 5.2499 3.74957C5.05088 3.74957 4.86 3.82863 4.71927 3.96936C4.57854 4.1101 4.49948 4.30097 4.49948 4.49999C4.49948 4.69901 4.57854 4.88988 4.71927 5.03061L11.6896 12L4.71927 18.9694ZM19.1896 12L12.2193 5.03061C12.0785 4.88988 11.9995 4.69901 11.9995 4.49999C11.9995 4.30097 12.0785 4.1101 12.2193 3.96936C12.36 3.82863 12.5509 3.74957 12.7499 3.74957C12.9489 3.74957 13.1398 3.82863 13.2805 3.96936L20.7805 11.4694C20.8503 11.539 20.9056 11.6217 20.9433 11.7128C20.9811 11.8038 21.0005 11.9014 21.0005 12C21.0005 12.0986 20.9811 12.1961 20.9433 12.2872C20.9056 12.3782 20.8503 12.461 20.7805 12.5306L13.2805 20.0306C13.2108 20.1003 13.1281 20.1556 13.0371 20.1933C12.946 20.231 12.8484 20.2504 12.7499 20.2504C12.6514 20.2504 12.5538 20.231 12.4627 20.1933C12.3717 20.1556 12.289 20.1003 12.2193 20.0306C12.1496 19.9609 12.0943 19.8782 12.0566 19.7872C12.0189 19.6961 11.9995 19.5985 11.9995 19.5C11.9995 19.4014 12.0189 19.3039 12.0566 19.2128C12.0943 19.1218 12.1496 19.039 12.2193 18.9694L19.1896 12Z" fill="#298BA3"/>
</svg>
