<svg width="23" height="24" viewBox="0 0 23 24" fill="none" xmlns="http://www.w3.org/2000/svg">
<path d="M22.2168 6.24063L17.1335 1.15822C16.9645 0.98917 16.7639 0.855071 16.543 0.763581C16.3222 0.67209 16.0855 0.625 15.8465 0.625C15.6075 0.625 15.3708 0.67209 15.1499 0.763581C14.9291 0.855071 14.7285 0.98917 14.5595 1.15822L0.533476 15.1849C0.363744 15.3533 0.229176 15.5537 0.137595 15.7746C0.0460134 15.9955 -0.000754633 16.2323 9.20765e-06 16.4714V21.555C9.20765e-06 22.0377 0.191751 22.5006 0.533054 22.8419C0.874358 23.1832 1.33726 23.375 1.81994 23.375H20.9292C21.1705 23.375 21.402 23.2791 21.5727 23.1085C21.7433 22.9378 21.8392 22.7063 21.8392 22.465C21.8392 22.2236 21.7433 21.9922 21.5727 21.8215C21.402 21.6509 21.1705 21.555 20.9292 21.555H9.4773L22.2168 8.81482C22.3858 8.64581 22.5199 8.44516 22.6114 8.22432C22.7029 8.00347 22.75 7.76677 22.75 7.52773C22.75 7.28868 22.7029 7.05198 22.6114 6.83114C22.5199 6.6103 22.3858 6.40964 22.2168 6.24063ZM11.8296 6.46131L13.728 8.35982L4.09485 17.9934L2.19644 16.0949L11.8296 6.46131ZM1.81994 21.555V18.2915L5.0833 21.555H1.81994ZM7.27973 21.1785L5.38245 19.28L15.0144 9.64635L16.9128 11.5449L7.27973 21.1785ZM18.1993 10.2583L13.1172 5.17478L15.8471 2.44475L20.9292 7.5283L18.1993 10.2583Z" fill="#3393AD"/>
</svg>
