<svg width="22" height="22" viewBox="0 0 22 22" fill="none" xmlns="http://www.w3.org/2000/svg">
<path d="M22 10.1542V20.3077C22 20.7566 21.7893 21.187 21.4142 21.5043C21.0391 21.8217 20.5304 22 20 22H2C1.46957 22 0.960859 21.8217 0.585786 21.5043C0.210714 21.187 0 20.7566 0 20.3077V10.1542C0 9.70539 0.210714 9.27496 0.585786 8.9576C0.960859 8.64024 1.46957 8.46195 2 8.46195H5C5.26522 8.46195 5.51957 8.55109 5.70711 8.70977C5.89464 8.86845 6 9.08367 6 9.30808C6 9.53248 5.89464 9.7477 5.70711 9.90638C5.51957 10.0651 5.26522 10.1542 5 10.1542H2V20.3077H20V10.1542H17C16.7348 10.1542 16.4804 10.0651 16.2929 9.90638C16.1054 9.7477 16 9.53248 16 9.30808C16 9.08367 16.1054 8.86845 16.2929 8.70977C16.4804 8.55109 16.7348 8.46195 17 8.46195H20C20.5304 8.46195 21.0391 8.64024 21.4142 8.9576C21.7893 9.27496 22 9.70539 22 10.1542ZM6.7075 5.67607L10 2.88914V12.6926C10 12.917 10.1054 13.1322 10.2929 13.2909C10.4804 13.4496 10.7348 13.5387 11 13.5387C11.2652 13.5387 11.5196 13.4496 11.7071 13.2909C11.8946 13.1322 12 12.917 12 12.6926V2.88914L15.2925 5.67607C15.4801 5.83484 15.7346 5.92403 16 5.92403C16.2654 5.92403 16.5199 5.83484 16.7075 5.67607C16.8951 5.5173 17.0006 5.30197 17.0006 5.07744C17.0006 4.8529 16.8951 4.63757 16.7075 4.4788L11.7075 0.248158C11.6146 0.169488 11.5043 0.107078 11.3829 0.0644977C11.2615 0.0219169 11.1314 0 11 0C10.8686 0 10.7385 0.0219169 10.6171 0.0644977C10.4957 0.107078 10.3854 0.169488 10.2925 0.248158L5.2925 4.4788C5.10486 4.63757 4.99944 4.8529 4.99944 5.07744C4.99944 5.30197 5.10486 5.5173 5.2925 5.67607C5.48014 5.83484 5.73464 5.92403 6 5.92403C6.26536 5.92403 6.51986 5.83484 6.7075 5.67607Z" fill="#3393AD"/>
</svg>
