<svg width="35" height="31" viewBox="0 0 35 31" fill="none" xmlns="http://www.w3.org/2000/svg">
<rect y="0.25" width="34.15" height="30.25" rx="5" fill="#78C8DD"/>
<path d="M19.325 6.25C18.0984 6.25 16.922 6.73728 16.0546 7.60463C15.1873 8.47199 14.7 9.64837 14.7 10.875V13.45H12.225C12.101 13.45 12 13.55 12 13.675V17.075C12 17.199 12.1 17.3 12.225 17.3H14.7V24.275C14.7 24.399 14.8 24.5 14.925 24.5H18.325C18.449 24.5 18.55 24.4 18.55 24.275V17.3H21.047C21.15 17.3 21.24 17.23 21.265 17.13L22.115 13.73C22.1234 13.6968 22.1241 13.6622 22.117 13.6287C22.11 13.5952 22.0954 13.5638 22.0744 13.5368C22.0533 13.5098 22.0264 13.4879 21.9957 13.4729C21.965 13.4579 21.9312 13.45 21.897 13.45H18.55V10.875C18.55 10.7732 18.57 10.6724 18.609 10.5784C18.6479 10.4844 18.705 10.399 18.777 10.327C18.849 10.255 18.9344 10.1979 19.0284 10.159C19.1224 10.12 19.2232 10.1 19.325 10.1H21.925C22.049 10.1 22.15 10 22.15 9.875V6.475C22.15 6.351 22.05 6.25 21.925 6.25H19.325Z" fill="black"/>
</svg>
