<svg width="34" height="30" viewBox="0 0 34 30" fill="none" xmlns="http://www.w3.org/2000/svg">
<rect width="34" height="30" rx="5" fill="#78C8DD"/>
<path d="M12.8 5H21.2C24.4 5 27 7.6 27 10.8V19.2C27 20.7383 26.3889 22.2135 25.3012 23.3012C24.2135 24.3889 22.7383 25 21.2 25H12.8C9.6 25 7 22.4 7 19.2V10.8C7 9.26174 7.61107 7.78649 8.69878 6.69878C9.78649 5.61107 11.2617 5 12.8 5ZM12.6 7C11.6452 7 10.7295 7.37928 10.0544 8.05442C9.37928 8.72955 9 9.64522 9 10.6V19.4C9 21.39 10.61 23 12.6 23H21.4C22.3548 23 23.2705 22.6207 23.9456 21.9456C24.6207 21.2705 25 20.3548 25 19.4V10.6C25 8.61 23.39 7 21.4 7H12.6ZM22.25 8.5C22.5815 8.5 22.8995 8.6317 23.1339 8.86612C23.3683 9.10054 23.5 9.41848 23.5 9.75C23.5 10.0815 23.3683 10.3995 23.1339 10.6339C22.8995 10.8683 22.5815 11 22.25 11C21.9185 11 21.6005 10.8683 21.3661 10.6339C21.1317 10.3995 21 10.0815 21 9.75C21 9.41848 21.1317 9.10054 21.3661 8.86612C21.6005 8.6317 21.9185 8.5 22.25 8.5ZM17 10C18.3261 10 19.5979 10.5268 20.5355 11.4645C21.4732 12.4021 22 13.6739 22 15C22 16.3261 21.4732 17.5979 20.5355 18.5355C19.5979 19.4732 18.3261 20 17 20C15.6739 20 14.4021 19.4732 13.4645 18.5355C12.5268 17.5979 12 16.3261 12 15C12 13.6739 12.5268 12.4021 13.4645 11.4645C14.4021 10.5268 15.6739 10 17 10ZM17 12C16.2044 12 15.4413 12.3161 14.8787 12.8787C14.3161 13.4413 14 14.2044 14 15C14 15.7956 14.3161 16.5587 14.8787 17.1213C15.4413 17.6839 16.2044 18 17 18C17.7956 18 18.5587 17.6839 19.1213 17.1213C19.6839 16.5587 20 15.7956 20 15C20 14.2044 19.6839 13.4413 19.1213 12.8787C18.5587 12.3161 17.7956 12 17 12Z" fill="black"/>
</svg>
