<svg width="20" height="24" viewBox="0 0 20 24" fill="none" xmlns="http://www.w3.org/2000/svg">
<path d="M8.18177 17.75H15.4545V19.3928H8.18177V17.75ZM4.54541 17.75H6.36359V19.3928H4.54541V17.75ZM8.18177 13.6428H15.4545V15.2857H8.18177V13.6428ZM4.54541 13.6428H6.36359V15.2857H4.54541V13.6428ZM8.18177 9.53571H15.4545V11.1786H8.18177V9.53571ZM4.54541 9.53571H6.36359V11.1786H4.54541V9.53571Z" fill="#F3FAFC"/>
<path d="M18.1818 2.96429H15.4545V2.14286C15.4545 1.70714 15.263 1.28928 14.922 0.981182C14.581 0.673086 14.1186 0.5 13.6364 0.5H6.36364C5.88142 0.5 5.41896 0.673086 5.07799 0.981182C4.73701 1.28928 4.54545 1.70714 4.54545 2.14286V2.96429H1.81818C1.33597 2.96429 0.873508 3.13737 0.532533 3.44547C0.191558 3.75356 0 4.17143 0 4.60714V21.8571C0 22.2929 0.191558 22.7107 0.532533 23.0188C0.873508 23.3269 1.33597 23.5 1.81818 23.5H18.1818C18.664 23.5 19.1265 23.3269 19.4675 23.0188C19.8084 22.7107 20 22.2929 20 21.8571V4.60714C20 4.17143 19.8084 3.75356 19.4675 3.44547C19.1265 3.13737 18.664 2.96429 18.1818 2.96429ZM6.36364 2.14286H13.6364V5.42857H6.36364V2.14286ZM18.1818 21.8571H1.81818V4.60714H4.54545V7.07143H15.4545V4.60714H18.1818V21.8571Z" fill="#F3FAFC"/>
</svg>
