<svg width="21" height="25" viewBox="0 0 21 25" fill="none" xmlns="http://www.w3.org/2000/svg">
<path d="M6.42857 3.5556H3.71429C2.99441 3.5556 2.30402 3.82485 1.795 4.30411C1.28597 4.78337 1 5.43338 1 6.11116V21.4445C1 22.1223 1.28597 22.7723 1.795 23.2515C2.30402 23.7308 2.99441 24 3.71429 24H17.2857C18.0056 24 18.696 23.7308 19.205 23.2515C19.714 22.7723 20 22.1223 20 21.4445V6.11116C20 5.43338 19.714 4.78337 19.205 4.30411C18.696 3.82485 18.0056 3.5556 17.2857 3.5556H14.5714" stroke="#3393AD" stroke-width="2" stroke-linecap="round" stroke-linejoin="round"/>
<path d="M7.7861 15.0556H13.2147M10.5004 12.5V17.6111M6.42896 3.55556C6.42896 2.87778 6.71492 2.22776 7.22395 1.7485C7.73298 1.26925 8.42337 1 9.14324 1H11.8575C12.5774 1 13.2678 1.26925 13.7768 1.7485C14.2858 2.22776 14.5718 2.87778 14.5718 3.55556C14.5718 4.23333 14.2858 4.88335 13.7768 5.36261C13.2678 5.84187 12.5774 6.11111 11.8575 6.11111H9.14324C8.42337 6.11111 7.73298 5.84187 7.22395 5.36261C6.71492 4.88335 6.42896 4.23333 6.42896 3.55556Z" stroke="#3393AD" stroke-width="2" stroke-linecap="round" stroke-linejoin="round"/>
</svg>
