<svg width="18" height="18" viewBox="0 0 18 18" fill="none" xmlns="http://www.w3.org/2000/svg">
<path d="M15.493 6.19695C15.1996 5.89908 14.7207 5.89569 14.4232 6.1894C14.1258 6.4831 14.1224 6.96267 14.4157 7.26055L15.4361 8.29683L8.75543 8.29693C8.33767 8.29693 7.99901 8.63605 7.99902 9.05433C7.99902 9.47273 8.33769 9.81183 8.75545 9.81183L15.3994 9.81173L14.4233 10.7752C14.1258 11.0689 14.1224 11.5484 14.4156 11.8463C14.7089 12.1442 15.1879 12.1477 15.4854 11.854L17.7752 9.59363C17.9181 9.45263 17.9992 9.26053 18.0006 9.05963C18.002 8.85872 17.9237 8.66549 17.7828 8.52244L15.493 6.19695Z" fill="#F3FAFC"/>
<path d="M8.86347 1.50206C9.83055 1.50206 10.1585 1.50924 10.4073 1.57988C11.0916 1.77414 11.6265 2.30971 11.8205 2.99495C11.8906 3.2424 11.8981 3.56797 11.8982 4.52061C11.8982 4.52735 11.8982 4.53411 11.8982 4.54091C11.9106 4.94482 12.2418 5.26844 12.6482 5.26844C13.0546 5.26844 13.3855 4.94482 13.3978 4.54091L13.3982 4.42164C13.3986 3.62013 13.3988 3.06268 13.2636 2.58531C12.9277 1.39867 12.0015 0.47121 10.8164 0.13482C10.3397 -0.000503346 9.78305 -0.000285284 8.98259 2.97155e-05L6.69415 5.96371e-05C5.32656 3.96371e-05 4.22424 1.96621e-05 3.35728 0.11674C2.45717 0.23792 1.69929 0.49716 1.09738 1.09988C0.495457 1.7026 0.236567 2.46148 0.115547 3.3628C-0.00101201 4.23091 -0.000996041 5.3347 -0.000976041 6.7041V11.2959C-0.000996041 12.6653 -0.00101201 13.7691 0.115547 14.6372C0.236567 15.5385 0.495457 16.2974 1.09738 16.9001C1.69929 17.5028 2.45717 17.7621 3.35728 17.8833C4.22425 18 5.32657 18 6.69416 17.9999L8.98943 18C9.78355 18.0003 10.3358 18.0005 10.809 17.8673C12.0001 17.532 12.9309 16.5999 13.2657 15.4072C13.3988 14.9334 13.3986 14.3804 13.3982 13.5852V13.4669V13.463C13.3982 13.0482 13.0624 12.712 12.6482 12.712C12.234 12.712 11.8982 13.0482 11.8982 13.463V13.4669C11.8982 14.4275 11.8912 14.7534 11.8217 15.0007C11.6284 15.6895 11.0908 16.2277 10.403 16.4213C10.156 16.4909 9.83065 16.4979 8.87125 16.4979H6.74903C5.31361 16.4979 4.3125 16.4963 3.55715 16.3947C2.82337 16.2959 2.4348 16.1152 2.15804 15.838C1.88127 15.5609 1.70083 15.1718 1.60218 14.4371C1.50062 13.6807 1.49903 12.6783 1.49903 11.2409V6.75908C1.49903 5.32175 1.50062 4.31929 1.60218 3.56293C1.70083 2.82818 1.88127 2.43909 2.15804 2.16195C2.4348 1.88482 2.82337 1.70413 3.55715 1.60535C4.3125 1.50366 5.31361 1.50206 6.74903 1.50206H8.86347Z" fill="#F3FAFC"/>
</svg>
