<svg width="76" height="75" viewBox="0 0 76 75" fill="none" xmlns="http://www.w3.org/2000/svg">
<path d="M71.8317 21.3239C75.8307 29.6877 76.5899 39.2364 73.9627 48.1271C71.3354 57.0177 65.5081 64.62 57.6053 69.4668C49.7024 74.3136 40.2844 76.0612 31.1688 74.3725C22.0532 72.6837 13.8863 67.6781 8.2443 60.322C2.60227 52.9658 -0.114912 43.7804 0.617168 34.5387C1.34925 25.2969 5.4787 16.654 12.2085 10.2778C18.9384 3.90167 27.7915 0.244382 37.0593 0.0118125C46.3271 -0.220757 55.3525 2.98787 62.3937 9.01844L70.5601 0.848425C71.1008 0.307674 71.8342 0.0038842 72.599 0.0038842C73.3637 0.0038842 74.0971 0.307674 74.6379 0.848425C75.1786 1.38918 75.4824 2.12259 75.4824 2.88733C75.4824 3.65206 75.1786 4.38548 74.6379 4.92623L40.0558 39.5083C39.515 40.0491 38.7816 40.3529 38.0169 40.3529C37.2521 40.3529 36.5187 40.0491 35.978 39.5083C35.4372 38.9676 35.1334 38.2341 35.1334 37.4694C35.1334 36.7047 35.4372 35.9713 35.978 35.4305L45.9636 25.4449C43.2573 23.6551 40.0263 22.8311 36.7934 23.1061C33.5606 23.3812 30.5152 24.7392 28.1502 26.9605C25.7853 29.1817 24.2392 32.1361 23.7623 35.3454C23.2854 38.5547 23.9055 41.831 25.5224 44.644C27.1392 47.457 29.6581 49.6419 32.6712 50.8452C35.6844 52.0484 39.0155 52.1995 42.1252 51.274C45.2349 50.3485 47.9413 48.4005 49.8062 45.7455C51.671 43.0905 52.5853 39.8838 52.4009 36.6445C52.3796 36.266 52.433 35.8871 52.5582 35.5293C52.6834 35.1715 52.8778 34.8419 53.1303 34.5592C53.3829 34.2766 53.6886 34.0464 54.0301 33.8819C54.3716 33.7174 54.7422 33.6218 55.1206 33.6005C55.8849 33.5575 56.635 33.8199 57.2059 34.33C57.4885 34.5825 57.7187 34.8883 57.8832 35.2298C58.0476 35.5713 58.1433 35.9418 58.1645 36.3203C58.4273 40.9052 57.1177 45.4426 54.4523 49.1824C51.7869 52.9222 47.9253 55.6406 43.5056 56.8884C39.0859 58.1361 34.3727 57.8385 30.1451 56.0447C25.9175 54.2508 22.4285 51.0682 20.2547 47.0228C18.081 42.9774 17.3526 38.3113 18.19 33.7959C19.0275 29.2804 21.3805 25.1858 24.8603 22.1889C28.3401 19.192 32.7384 17.4721 37.3281 17.3135C41.9178 17.1549 46.4242 18.5671 50.1026 21.3167L58.2978 13.1215C52.2921 8.13514 44.6558 5.54353 36.8557 5.84437C29.0556 6.14521 21.6416 9.3173 16.0378 14.7514C10.4339 20.1855 7.03532 27.4984 6.49474 35.2856C5.95417 43.0727 8.30972 50.7851 13.109 56.9413C17.9082 63.0976 24.8128 67.2637 32.4965 68.6394C40.1803 70.0151 48.1014 68.5034 54.7385 64.3948C61.3756 60.2861 66.2607 53.8701 68.4556 46.3791C70.6505 38.8881 70.0003 30.8503 66.63 23.8095C66.3003 23.1197 66.2583 22.3272 66.5129 21.6064C66.7676 20.8856 67.2982 20.2954 67.988 19.9658C68.6778 19.6362 69.4703 19.5941 70.1911 19.8488C70.9119 20.1035 71.5021 20.6341 71.8317 21.3239Z" fill="black"/>
</svg>
