<svg width="17" height="10" viewBox="0 0 17 10" fill="none" xmlns="http://www.w3.org/2000/svg">
<path d="M16.7734 0.244372C16.7016 0.166903 16.6164 0.105444 16.5226 0.0635128C16.4288 0.0215816 16.3283 0 16.2267 0C16.1252 0 16.0246 0.0215816 15.9308 0.0635128C15.837 0.105444 15.7518 0.166903 15.68 0.244372L8.49991 7.98815L1.31978 0.244372C1.17479 0.088026 0.978151 0.000190735 0.77311 0.000190735C0.568068 0.000190735 0.371425 0.088026 0.226439 0.244372C0.0814523 0.40072 4.04186e-09 0.612771 0 0.833879C-4.04186e-09 1.05499 0.0814523 1.26704 0.226439 1.42339L7.95324 9.75563C8.025 9.8331 8.11022 9.89455 8.20402 9.93649C8.29782 9.97842 8.39837 10 8.49991 10C8.60145 10 8.702 9.97842 8.7958 9.93649C8.8896 9.89455 8.97482 9.8331 9.04658 9.75563L16.7734 1.42339C16.8452 1.346 16.9022 1.25411 16.9411 1.15295C16.98 1.0518 17 0.943377 17 0.833879C17 0.72438 16.98 0.615956 16.9411 0.514804C16.9022 0.413652 16.8452 0.321756 16.7734 0.244372Z" fill="black"/>
</svg>
