<svg width="17" height="10" viewBox="0 0 17 10" fill="none" xmlns="http://www.w3.org/2000/svg">
<path d="M16.7734 9.75563C16.7016 9.8331 16.6164 9.89456 16.5226 9.93649C16.4288 9.97842 16.3283 10 16.2267 10C16.1252 10 16.0246 9.97842 15.9308 9.93649C15.837 9.89456 15.7518 9.8331 15.68 9.75563L8.49991 2.01185L1.31978 9.75563C1.17479 9.91197 0.978151 9.99981 0.77311 9.99981C0.568068 9.99981 0.371425 9.91197 0.226439 9.75563C0.0814523 9.59928 4.04186e-09 9.38723 0 9.16612C-4.04186e-09 8.94501 0.0814523 8.73296 0.226439 8.57661L7.95324 0.244373C8.025 0.166903 8.11022 0.105446 8.20402 0.0635143C8.29782 0.0215829 8.39837 0 8.49991 0C8.60145 0 8.702 0.0215829 8.7958 0.0635143C8.8896 0.105446 8.97482 0.166903 9.04658 0.244373L16.7734 8.57661C16.8452 8.654 16.9022 8.74589 16.9411 8.84705C16.98 8.9482 17 9.05662 17 9.16612C17 9.27562 16.98 9.38404 16.9411 9.4852C16.9022 9.58635 16.8452 9.67824 16.7734 9.75563Z" fill="black"/>
</svg>
