<svg width="38" height="36" viewBox="0 0 38 36" fill="none" xmlns="http://www.w3.org/2000/svg">
<path d="M37.0913 33.4552C34.4142 28.8269 30.2886 25.5082 25.474 23.9349C27.8555 22.5172 29.7058 20.3568 30.7407 17.7857C31.7757 15.2146 31.938 12.3748 31.2028 9.70253C30.4676 7.03022 28.8755 4.67314 26.671 2.99325C24.4665 1.31337 21.7715 0.403564 18.9999 0.403564C16.2283 0.403564 13.5334 1.31337 11.3289 2.99325C9.12441 4.67314 7.53232 7.03022 6.7971 9.70253C6.06189 12.3748 6.22421 15.2146 7.25914 17.7857C8.29407 20.3568 10.1444 22.5172 12.5259 23.9349C7.71127 25.5064 3.58568 28.8251 0.908536 33.4552C0.81036 33.6153 0.745241 33.7934 0.71702 33.9791C0.688799 34.1647 0.698049 34.3542 0.744223 34.5362C0.790397 34.7182 0.87256 34.8891 0.985865 35.0389C1.09917 35.1886 1.24132 35.3142 1.40393 35.4081C1.56654 35.502 1.74632 35.5625 1.93265 35.5858C2.11898 35.6091 2.3081 35.5949 2.48885 35.5439C2.66959 35.493 2.8383 35.4063 2.98502 35.2891C3.13174 35.1719 3.25349 35.0265 3.34311 34.8615C6.65482 29.138 12.5083 25.7208 18.9999 25.7208C25.4915 25.7208 31.3451 29.138 34.6568 34.8615C34.7464 35.0265 34.8681 35.1719 35.0149 35.2891C35.1616 35.4063 35.3303 35.493 35.511 35.5439C35.6918 35.5949 35.8809 35.6091 36.0672 35.5858C36.2536 35.5625 36.4333 35.502 36.5959 35.4081C36.7586 35.3142 36.9007 35.1886 37.014 35.0389C37.1273 34.8891 37.2095 34.7182 37.2557 34.5362C37.3018 34.3542 37.3111 34.1647 37.2829 33.9791C37.2546 33.7934 37.1895 33.6153 37.0913 33.4552ZM9.15619 13.0646C9.15619 11.1177 9.73352 9.2145 10.8152 7.5957C11.8968 5.97691 13.4342 4.71521 15.2329 3.97016C17.0316 3.22511 19.0109 3.03017 20.9204 3.40999C22.8299 3.78981 24.5838 4.72734 25.9605 6.10401C27.3372 7.48069 28.2747 9.23468 28.6545 11.1442C29.0344 13.0537 28.8394 15.0329 28.0944 16.8316C27.3493 18.6303 26.0876 20.1677 24.4688 21.2494C22.85 22.331 20.9468 22.9083 18.9999 22.9083C16.3901 22.9056 13.8879 21.8676 12.0424 20.0221C10.197 18.1766 9.15898 15.6745 9.15619 13.0646Z" fill="#1E1E1E"/>
</svg>
