<svg width="22" height="22" viewBox="0 0 22 22" fill="none" xmlns="http://www.w3.org/2000/svg">
<path d="M21.4626 4.58334L17.4167 0.537405C17.247 0.366423 17.0451 0.230864 16.8226 0.138608C16.6002 0.0463522 16.3616 -0.00076019 16.1207 9.27546e-06H1.83333C1.3471 9.27546e-06 0.880787 0.193163 0.536971 0.53698C0.193154 0.880796 0 1.34711 0 1.83334V20.1667C0 20.6529 0.193154 21.1192 0.536971 21.463C0.880787 21.8068 1.3471 22 1.83333 22H20.1667C20.6529 22 21.1192 21.8068 21.463 21.463C21.8068 21.1192 22 20.6529 22 20.1667V5.87928C22.0008 5.63843 21.9536 5.39984 21.8614 5.17736C21.7691 4.95488 21.6336 4.75296 21.4626 4.58334ZM15.5833 20.1667H6.41666V13.75H15.5833V20.1667ZM20.1667 20.1667H17.4167V13.75C17.4167 13.2638 17.2235 12.7975 16.8797 12.4536C16.5359 12.1098 16.0696 11.9167 15.5833 11.9167H6.41666C5.93043 11.9167 5.46412 12.1098 5.1203 12.4536C4.77649 12.7975 4.58333 13.2638 4.58333 13.75V20.1667H1.83333V1.83334H16.1207L20.1667 5.87928V20.1667ZM14.6667 4.58334C14.6667 4.82646 14.5701 5.05961 14.3982 5.23152C14.2263 5.40343 13.9931 5.50001 13.75 5.50001H7.33333C7.09022 5.50001 6.85706 5.40343 6.68515 5.23152C6.51324 5.05961 6.41666 4.82646 6.41666 4.58334C6.41666 4.34023 6.51324 4.10707 6.68515 3.93516C6.85706 3.76325 7.09022 3.66667 7.33333 3.66667H13.75C13.9931 3.66667 14.2263 3.76325 14.3982 3.93516C14.5701 4.10707 14.6667 4.34023 14.6667 4.58334Z" fill="#3393AD"/>
</svg>
