<svg width="17" height="16" viewBox="0 0 17 16" fill="none" xmlns="http://www.w3.org/2000/svg">
<path d="M4.48469 7.33356H12.1827C12.7574 7.33356 13.0627 6.65356 12.6807 6.22356L8.83202 1.89356C8.7696 1.8231 8.69293 1.76668 8.60708 1.72805C8.52123 1.68941 8.42816 1.66943 8.33402 1.66943C8.23988 1.66943 8.14682 1.68941 8.06097 1.72805C7.97512 1.76668 7.89845 1.8231 7.83602 1.89356L3.98602 6.22356C3.60402 6.65356 3.90936 7.33356 4.48469 7.33356ZM7.83536 14.1062C7.89779 14.1767 7.97446 14.2331 8.0603 14.2717C8.14615 14.3104 8.23922 14.3304 8.33336 14.3304C8.4275 14.3304 8.52057 14.3104 8.60641 14.2717C8.69226 14.2331 8.76893 14.1767 8.83136 14.1062L12.68 9.77623C13.0627 9.34689 12.7574 8.66689 12.182 8.66689H4.48469C3.91002 8.66689 3.60469 9.34689 3.98669 9.77689L7.83536 14.1062Z" fill="#299BB8"/>
</svg>
