<svg width="20" height="22" viewBox="0 0 20 22" fill="none" xmlns="http://www.w3.org/2000/svg">
<path fill-rule="evenodd" clip-rule="evenodd" d="M12.8733 0C13.3951 0.000126204 13.9001 0.181978 14.3 0.5137L14.4444 0.6446L19.3489 5.5C19.7178 5.86522 19.9451 6.34731 19.9911 6.8618L20 7.0554V19.8C20.0002 20.355 19.7884 20.8896 19.4072 21.2966C19.026 21.7036 18.5035 21.9529 17.9444 21.9945L17.7778 22H11.1111V19.8H17.7778V8.8H12.7778C12.3635 8.79998 11.964 8.64719 11.6573 8.37142C11.3506 8.09565 11.1587 7.71668 11.1189 7.3084L11.1111 7.15V2.2H4.44444V11H2.22222V2.2C2.22204 1.64497 2.43378 1.11038 2.815 0.703397C3.19621 0.296418 3.71872 0.0471277 4.27778 0.00550013L4.44444 0H12.8733ZM6.34111 13.7115L9.48445 16.8223C9.69275 17.0286 9.80976 17.3083 9.80976 17.6C9.80976 17.8917 9.69275 18.1714 9.48445 18.3777L6.34111 21.4885C6.23861 21.5936 6.11601 21.6774 5.98045 21.735C5.84489 21.7927 5.69909 21.823 5.55156 21.8243C5.40402 21.8255 5.25771 21.7977 5.12116 21.7424C4.98461 21.6871 4.86055 21.6054 4.75623 21.5021C4.6519 21.3989 4.5694 21.276 4.51353 21.1409C4.45766 21.0057 4.42955 20.8608 4.43083 20.7148C4.43212 20.5687 4.46277 20.4244 4.521 20.2902C4.57923 20.156 4.66388 20.0346 4.77 19.9331L6.01556 18.7H1.11111C0.816426 18.7 0.533811 18.5841 0.325437 18.3778C0.117063 18.1715 0 17.8917 0 17.6C0 17.3083 0.117063 17.0285 0.325437 16.8222C0.533811 16.6159 0.816426 16.5 1.11111 16.5H6.01556L4.77 15.2669C4.66677 15.1648 4.58486 15.0435 4.52897 14.91C4.47307 14.7766 4.44427 14.6335 4.44422 14.489C4.44412 14.1972 4.5611 13.9174 4.76944 13.711C4.97779 13.5045 5.26042 13.3885 5.55516 13.3884C5.70111 13.3884 5.84563 13.4168 5.98048 13.472C6.11534 13.5273 6.23788 13.6083 6.34111 13.7104V13.7115ZM13.3333 2.6554V6.6H17.3178L13.3333 2.6554Z" fill="#426180"/>
</svg>
