<svg width="81" height="81" viewBox="0 0 81 81" fill="none" xmlns="http://www.w3.org/2000/svg">
<path d="M3 25.4487C3.41053 17.1592 4.63816 11.9882 8.3171 8.3171C11.9882 4.63816 17.1592 3.41053 25.4487 3M78 25.4487C77.5895 17.1592 76.3618 11.9882 72.6829 8.3171C69.0118 4.63816 63.8408 3.41053 55.5513 3M55.5513 78C63.8408 77.5895 69.0118 76.3618 72.6829 72.6829C76.3618 69.0118 77.5895 63.8408 78 55.5513M25.4487 78C17.1592 77.5895 11.9882 76.3618 8.3171 72.6829C4.63816 69.0118 3.41053 63.8408 3 55.5513M70.6382 37.8079C71.5974 39.0079 72.0789 39.6118 72.0789 40.5C72.0789 41.3882 71.5974 41.9921 70.6382 43.1921C66.3237 48.5921 55.3066 60.2368 40.5 60.2368C25.6934 60.2368 14.6763 48.5921 10.3618 43.1921C9.40263 41.9921 8.92105 41.3882 8.92105 40.5C8.92105 39.6118 9.40263 39.0079 10.3618 37.8079C14.6763 32.4079 25.6934 20.7632 40.5 20.7632C55.3066 20.7632 66.3237 32.4079 70.6382 37.8079Z" stroke="#1C5E6E" stroke-width="5" stroke-linecap="round" stroke-linejoin="round"/>
<path d="M48.3949 40.4999C48.3949 38.4061 47.5632 36.398 46.0826 34.9175C44.6021 33.4369 42.594 32.6052 40.5002 32.6052C38.4064 32.6052 36.3983 33.4369 34.9178 34.9175C33.4372 36.398 32.6055 38.4061 32.6055 40.4999C32.6055 42.5937 33.4372 44.6018 34.9178 46.0823C36.3983 47.5629 38.4064 48.3946 40.5002 48.3946C42.594 48.3946 44.6021 47.5629 46.0826 46.0823C47.5632 44.6018 48.3949 42.5937 48.3949 40.4999Z" stroke="#1C5E6E" stroke-width="5" stroke-linecap="round" stroke-linejoin="round"/>
</svg>
