<svg width="34" height="30" viewBox="0 0 34 30" fill="none" xmlns="http://www.w3.org/2000/svg">
<rect y="6.10352e-05" width="33.9" height="30.0001" rx="5" fill="#78C8DD"/>
<path d="M24 7.91011C23.0831 6.98422 21.991 6.25008 20.7875 5.75048C19.584 5.25087 18.2931 4.9958 16.99 5.00011C11.53 5.00011 7.08 9.45012 7.08 14.9101C7.08 16.6601 7.54 18.3601 8.4 19.8601L7 25.0001L12.25 23.6201C13.7 24.4101 15.33 24.8301 16.99 24.8301C22.45 24.8301 26.9 20.3801 26.9 14.9201C26.9 12.2701 25.87 9.78011 24 7.91011ZM16.99 23.1501C15.51 23.1501 14.06 22.7501 12.79 22.0001L12.49 21.8201L9.37 22.6401L10.2 19.6001L10 19.2901C9.17755 17.9772 8.74092 16.4594 8.74 14.9101C8.74 10.3701 12.44 6.67011 16.98 6.67011C19.18 6.67011 21.25 7.53012 22.8 9.09012C23.5676 9.85398 24.1759 10.7627 24.5896 11.7634C25.0033 12.7642 25.2142 13.8372 25.21 14.9201C25.23 19.4601 21.53 23.1501 16.99 23.1501ZM21.51 16.9901C21.26 16.8701 20.04 16.2701 19.82 16.1801C19.59 16.1001 19.43 16.0601 19.26 16.3001C19.09 16.5501 18.62 17.1101 18.48 17.2701C18.34 17.4401 18.19 17.4601 17.94 17.3301C17.69 17.2101 16.89 16.9401 15.95 16.1001C15.21 15.4401 14.72 14.6301 14.57 14.3801C14.43 14.1301 14.55 14.0001 14.68 13.8701C14.79 13.7601 14.93 13.5801 15.05 13.4401C15.17 13.3001 15.22 13.1901 15.3 13.0301C15.38 12.8601 15.34 12.7201 15.28 12.6001C15.22 12.4801 14.72 11.2601 14.52 10.7601C14.32 10.2801 14.11 10.3401 13.96 10.3301H13.48C13.31 10.3301 13.05 10.3901 12.82 10.6401C12.6 10.8901 11.96 11.4901 11.96 12.7101C11.96 13.9301 12.85 15.1101 12.97 15.2701C13.09 15.4401 14.72 17.9401 17.2 19.0101C17.79 19.2701 18.25 19.4201 18.61 19.5301C19.2 19.7201 19.74 19.6901 20.17 19.6301C20.65 19.5601 21.64 19.0301 21.84 18.4501C22.05 17.8701 22.05 17.3801 21.98 17.2701C21.91 17.1601 21.76 17.1101 21.51 16.9901Z" fill="black"/>
</svg>
